<svg xmlns="http://www.w3.org/2000/svg" viewBox="0 0 1024 1024" role="img"><path d="M512 1024c282.77 0 512-229.23 512-512S794.77 0 512 0 0 229.23 0 512s229.23 512 512 512zm0-960c247.424 0 448 200.576 448 448S759.424 960 512 960C264.577 960 64 759.424 64 512S264.577 64 512 64z"/><path d="M512 896c212.077 0 384-171.923 384-384S724.077 128 512 128 128 299.923 128 512s171.923 384 384 384zM308.805 521.78l53.003-18.67L436.595 224h160L538.48 440.89 609.15 416 592 480l-70.67 24.89L485.129 640h256l-25.723 96h-416l45.254-168.89-53.003 18.67z"/></svg>